<svg width="20" height="20" viewBox="0 0 20 20" fill="none" xmlns="http://www.w3.org/2000/svg">
<path d="M16.875 5.15637H13.5938V5.00012C13.5938 4.047 13.2151 3.13292 12.5412 2.45896C11.8672 1.785 10.9531 1.40637 10 1.40637C9.04688 1.40637 8.13279 1.785 7.45884 2.45896C6.78488 3.13292 6.40625 4.047 6.40625 5.00012V5.15637H3.125C2.83492 5.15637 2.55672 5.27161 2.3516 5.47672C2.14648 5.68184 2.03125 5.96004 2.03125 6.25012V15.6251C2.03125 15.9152 2.14648 16.1934 2.3516 16.3985C2.55672 16.6036 2.83492 16.7189 3.125 16.7189H16.875C17.1651 16.7189 17.4433 16.6036 17.6484 16.3985C17.8535 16.1934 17.9688 15.9152 17.9688 15.6251V6.25012C17.9688 5.96004 17.8535 5.68184 17.6484 5.47672C17.4433 5.27161 17.1651 5.15637 16.875 5.15637ZM7.34375 5.00012C7.34375 4.29564 7.6236 3.62001 8.12175 3.12187C8.61989 2.62373 9.29552 2.34387 10 2.34387C10.7045 2.34387 11.3801 2.62373 11.8783 3.12187C12.3764 3.62001 12.6562 4.29564 12.6562 5.00012V5.15637H7.34375V5.00012ZM17.0312 15.6251C17.0312 15.6666 17.0148 15.7063 16.9855 15.7356C16.9562 15.7649 16.9164 15.7814 16.875 15.7814H3.125C3.08356 15.7814 3.04382 15.7649 3.01451 15.7356C2.98521 15.7063 2.96875 15.6666 2.96875 15.6251V6.25012C2.96875 6.20868 2.98521 6.16894 3.01451 6.13964C3.04382 6.11033 3.08356 6.09387 3.125 6.09387H6.40625V7.50012C6.40625 7.62444 6.45564 7.74367 6.54354 7.83158C6.63145 7.91949 6.75068 7.96887 6.875 7.96887C6.99932 7.96887 7.11855 7.91949 7.20646 7.83158C7.29436 7.74367 7.34375 7.62444 7.34375 7.50012V6.09387H12.6562V7.50012C12.6562 7.62444 12.7056 7.74367 12.7935 7.83158C12.8815 7.91949 13.0007 7.96887 13.125 7.96887C13.2493 7.96887 13.3685 7.91949 13.4565 7.83158C13.5444 7.74367 13.5938 7.62444 13.5938 7.50012V6.09387H16.875C16.9164 6.09387 16.9562 6.11033 16.9855 6.13964C17.0148 6.16894 17.0312 6.20868 17.0312 6.25012V15.6251Z" fill="#3A3A3A"/>
</svg>
