<svg width="20" height="20" viewBox="0 0 20 20" fill="none" xmlns="http://www.w3.org/2000/svg">
<path d="M16.6938 17.3252C17.0771 17.7085 17.6687 17.1168 17.2854 16.7418L14.1604 13.6085C15.2566 12.3956 15.8625 10.8184 15.8604 9.18351C15.8604 5.52517 12.8854 2.55017 9.22708 2.55017C5.56875 2.55017 2.59375 5.52517 2.59375 9.18351C2.59375 12.8418 5.56875 15.8168 9.22708 15.8168C10.8771 15.8168 12.4021 15.2085 13.5688 14.2002L16.6938 17.3252ZM3.42625 9.18351C3.42625 5.98351 6.03458 3.3835 9.22625 3.3835C12.4263 3.3835 15.0263 5.98351 15.0263 9.18351C15.0263 12.3835 12.4263 14.9835 9.22625 14.9835C6.03458 14.9835 3.42625 12.3835 3.42625 9.18351Z" fill="#3A3A3A"/>
</svg>
