<svg width="24" height="25" viewBox="0 0 24 25" fill="none" xmlns="http://www.w3.org/2000/svg">
<path d="M21.4867 20.2165C20.0045 17.6553 17.6776 15.8581 14.9739 15.0959C16.2884 14.4277 17.3396 13.3363 17.9579 11.9976C18.5762 10.6589 18.7256 9.15092 18.382 7.7169C18.0385 6.28288 17.222 5.00636 16.0642 4.09317C14.9064 3.17998 13.4747 2.68335 12.0001 2.68335C10.5255 2.68335 9.09392 3.17998 7.93611 4.09317C6.7783 5.00636 5.96179 6.28288 5.61824 7.7169C5.27468 9.15092 5.4241 10.6589 6.04241 11.9976C6.66072 13.3363 7.71188 14.4277 9.02639 15.0959C6.32264 15.8572 3.99577 17.6543 2.51358 20.2165C2.47288 20.2806 2.44555 20.3522 2.43324 20.427C2.42093 20.5019 2.42388 20.5784 2.44193 20.6521C2.45998 20.7258 2.49275 20.7951 2.53826 20.8558C2.58378 20.9165 2.6411 20.9673 2.70678 21.0053C2.77246 21.0433 2.84514 21.0676 2.92045 21.0767C2.99576 21.0858 3.07215 21.0797 3.14501 21.0585C3.21786 21.0374 3.2857 21.0017 3.34442 20.9537C3.40314 20.9057 3.45154 20.8463 3.4867 20.779C5.28764 17.6675 8.46952 15.8103 12.0001 15.8103C15.5308 15.8103 18.7126 17.6675 20.5136 20.779C20.5487 20.8463 20.5971 20.9057 20.6559 20.9537C20.7146 21.0017 20.7824 21.0374 20.8553 21.0585C20.9281 21.0797 21.0045 21.0858 21.0798 21.0767C21.1551 21.0676 21.2278 21.0433 21.2935 21.0053C21.3592 20.9673 21.4165 20.9165 21.462 20.8558C21.5075 20.7951 21.5403 20.7258 21.5583 20.6521C21.5764 20.5784 21.5794 20.5019 21.567 20.427C21.5547 20.3522 21.5274 20.2806 21.4867 20.2165ZM6.56264 9.24779C6.56264 8.17235 6.88155 7.12107 7.47903 6.22687C8.07651 5.33268 8.92573 4.63574 9.9193 4.22419C10.9129 3.81264 12.0062 3.70496 13.0609 3.91477C14.1157 4.12457 15.0846 4.64244 15.845 5.40289C16.6055 6.16334 17.1234 7.13221 17.3332 8.18698C17.543 9.24175 17.4353 10.3351 17.0237 11.3286C16.6122 12.3222 15.9152 13.1714 15.0211 13.7689C14.1269 14.3664 13.0756 14.6853 12.0001 14.6853C10.5586 14.6835 9.17652 14.1101 8.15717 13.0908C7.13781 12.0714 6.56438 10.6894 6.56264 9.24779Z" fill="#3A3A3A"/>
</svg>
