<svg width="20" height="20" viewBox="0 0 20 20" fill="none" xmlns="http://www.w3.org/2000/svg">
<path d="M13.9062 2.65637C12.2656 2.65637 10.8391 3.39622 10 4.63606C9.16094 3.39622 7.73438 2.65637 6.09375 2.65637C4.85099 2.65782 3.65955 3.15214 2.78079 4.03091C1.90202 4.90967 1.4077 6.10111 1.40625 7.34387C1.40625 9.62512 2.82812 11.9993 5.63281 14.3993C6.91801 15.4945 8.30626 16.4625 9.77813 17.29C9.84634 17.3266 9.92257 17.3458 10 17.3458C10.0774 17.3458 10.1537 17.3266 10.2219 17.29C11.6937 16.4625 13.082 15.4945 14.3672 14.3993C17.1719 11.9993 18.5938 9.62512 18.5938 7.34387C18.5923 6.10111 18.098 4.90967 17.2192 4.03091C16.3405 3.15214 15.149 2.65782 13.9062 2.65637ZM10 16.3368C8.71797 15.597 2.34375 11.697 2.34375 7.34387C2.34478 6.34963 2.7402 5.3964 3.44324 4.69336C4.14628 3.99033 5.09951 3.59491 6.09375 3.59387C7.67812 3.59387 9.00859 4.43997 9.56641 5.80247C9.60172 5.88844 9.6618 5.96197 9.739 6.01372C9.81621 6.06547 9.90706 6.09311 10 6.09311C10.0929 6.09311 10.1838 6.06547 10.261 6.01372C10.3382 5.96197 10.3983 5.88844 10.4336 5.80247C10.9914 4.43997 12.3219 3.59387 13.9062 3.59387C14.9005 3.59491 15.8537 3.99033 16.5568 4.69336C17.2598 5.3964 17.6552 6.34963 17.6562 7.34387C17.6562 11.697 11.282 15.597 10 16.3368Z" fill="#3A3A3A"/>
</svg>
